# xmcd
#
# Track frame offsets: 
#        150
#        13388
#        24315
#        36040
#        48763
#        59957
#        71639
#        83922
#        95815
#        107683
#        117993
#        131536
#        141822
#        157565
#        170613
#        180528
#        192914
#        206452
#
# Disc length: 3464 seconds
#
# Revision: 4
# Processed by: cddbd v1.5.2PL0 Copyright (c) Steve Scherf et al.
# Submitted via: ExactAudioCopy v0.99pb4
#
DISCID=f80d8612
DTITLE=Various Artist - Willie Dixon - Boss Of The Chicago Blues
DYEAR=1167
DGENRE=Blues
TTITLE0=Otis Rush - I Can't Quit You Baby
TTITLE1=Harold Burrage - I Don't Care Who Knows
TTITLE2=Charles Clark - Hidden Charms
TTITLE3=Jessie Fortune - Too Many Cooks
TTITLE4=George Butler - Axe And The Wind
TTITLE5=Willie Mason - Just Got Some
TTITLE6=Magic Sam - Easy Baby
TTITLE7=Lee Jackson - Fishin In My Pond
TTITLE8=Junior Wells - Two Headed Woman
TTITLE9=Walter Horton - Have A Good Time
TTITLE10=Buddy Guy - Sit And Cry (The Blues)
TTITLE11=Betty Everett - My Love
TTITLE12=Buster Benton - Spider In My Stew
TTITLE13=Harold Burrage - Satisfied
TTITLE14=Mickey Gilley - My Babe
TTITLE15=Magic Sam - All Night Long
TTITLE16=Junior Wells - She's A Sweet One
TTITLE17=Otis Rush - My Love Will Never Die
EXTD=
EXTT0=
EXTT1=
EXTT2=
EXTT3=
EXTT4=
EXTT5=
EXTT6=
EXTT7=
EXTT8=
EXTT9=
EXTT10=
EXTT11=
EXTT12=
EXTT13=
EXTT14=
EXTT15=
EXTT16=
EXTT17=
PLAYORDER=
